<svg id="Capa_1" enable-background="new 0 0 512 512" height="512" viewBox="0 0 512 512" width="512" xmlns="http://www.w3.org/2000/svg"><g><circle cx="256" cy="136" r="10"/><circle cx="256" cy="196" r="10"/><circle cx="256" cy="256" r="10"/><circle cx="196" cy="136" r="10"/><circle cx="196" cy="196" r="10"/><circle cx="196" cy="256" r="10"/><circle cx="136" cy="136" r="10"/><circle cx="136" cy="196" r="10"/><circle cx="136" cy="256" r="10"/><circle cx="442" cy="381.999" r="10"/><path d="m509.072 194.929-62.2-62.2c-3.906-3.904-10.236-3.904-14.143 0l-50.099 50.099-46.827-46.828 52.929-52.929c3.905-3.905 3.905-10.237 0-14.143l-66-66c-3.906-3.904-10.236-3.904-14.143 0l-52.929 52.929-52.928-52.928c-3.906-3.904-10.236-3.904-14.143 0l-52.929 52.928-52.928-52.928c-3.906-3.904-10.236-3.904-14.143 0l-65.66 65.66c-3.905 3.905-3.905 10.237 0 14.143l52.929 52.929-52.929 52.928c-3.905 3.905-3.905 10.237 0 14.143l52.929 52.929-52.929 52.928c-3.905 3.905-3.905 10.237 0 14.143l66 66c3.906 3.904 10.236 3.904 14.143 0l52.928-52.929 46.827 46.827-50.099 50.099c-3.905 3.905-3.905 10.237 0 14.143l62.2 62.2c3.906 3.904 10.236 3.904 14.143 0l52.929-52.93 52.929 52.93c3.906 3.904 10.236 3.904 14.143 0l52.928-52.93 52.929 52.93c3.907 3.905 10.236 3.904 14.143 0l60-60c3.905-3.905 3.905-10.237 0-14.143l-28.195-28.195c-3.906-3.904-10.236-3.904-14.143 0-3.905 3.905-3.905 10.237 0 14.143l21.125 21.123-45.859 45.858-52.929-52.93c-3.906-3.904-10.236-3.904-14.143 0l-52.928 52.93-52.929-52.93c-3.906-3.904-10.236-3.904-14.143 0l-52.928 52.93-48.057-48.058c8.453-8.448 89.742-89.69 103.058-102.997l52.929 52.929c3.907 3.905 10.236 3.904 14.143 0l65.66-65.66c3.905-3.905 3.905-10.237 0-14.143l-52.93-52.929c.16-.16 102.838-102.898 102.997-103.058l48.058 48.058-52.929 52.929c-3.905 3.905-3.905 10.237 0 14.143l52.929 52.928-21.123 21.123c-3.905 3.905-3.905 10.237 0 14.143 3.907 3.905 10.236 3.904 14.143 0l28.194-28.194c3.905-3.905 3.905-10.237 0-14.143l-52.929-52.929 52.929-52.929c3.905-3.905 3.905-10.237 0-14.142zm-193.483 55c-3.905 3.905-3.905 10.237 0 14.143l52.929 52.928-51.518 51.518-52.929-52.929c-3.907-3.905-10.236-3.904-14.143 0l-52.928 52.929-53.929-53.929c-3.906-3.904-10.236-3.904-14.143 0l-52.928 52.929-51.857-51.858 52.929-52.929c3.905-3.905 3.905-10.237 0-14.143l-52.929-52.928 52.929-52.929c3.905-3.905 3.905-10.237 0-14.143l-52.929-52.928 51.517-51.517 52.929 52.929c3.906 3.904 10.236 3.904 14.143 0l52.929-52.929 52.929 52.929c3.906 3.904 10.236 3.904 14.143 0l52.929-52.929 51.856 51.857-52.929 52.929c-3.905 3.905-3.905 10.237 0 14.143l53.929 53.928z"/></g></svg>